<svg xmlns="http://www.w3.org/2000/svg" xml:space="preserve" width="2000" height="304" data-id="lg_ul6oOMxABjV3ANGsbu" data-version="1" viewBox="0 0 2000 304"><g data-padding="20"><g transform="matrix(4.20588 0 0 5.1966 381.753 381.193)"><linearGradient id="a" x1="0" x2="1" y1="0" y2="0" gradientUnits="objectBoundingBox"><stop offset="0%" stop-color="#f00b51"/><stop offset="100%" stop-color="#730062"/></linearGradient><path fill="url(#a)" d="M218.596 34.046h-40.66c-7.535-.016-13.643-6.115-13.67-13.65v-27.4c0-7.55 6.13-13.68 13.67-13.68h40.66c7.54 0 13.67 6.13 13.67 13.67v27.4c0 7.54-6.13 13.67-13.67 13.67m-40.66-50.6a9.54 9.54 0 0 0-9.53 9.53v27.4a9.54 9.54 0 0 0 9.53 9.53h40.66a9.53 9.53 0 0 0 9.52-9.52v-27.4a9.54 9.54 0 0 0-9.52-9.53Z" transform="translate(-51.27 -50.79)"/></g><g transform="matrix(4.20588 0 0 5.1966 381.711 371.891)"><linearGradient id="b" x1="0" x2="1" y1="0" y2="0" gradientUnits="objectBoundingBox"><stop offset="0%" stop-color="#f00b51"/><stop offset="100%" stop-color="#730062"/></linearGradient><path fill="url(#b)" d="M207.656 16.776c-.43 0-.85-.17-1.17-.5l-19.5-19.5-18.77 12a1.662 1.662 0 1 1-1.79-2.8l19.9-12.7a1.66 1.66 0 0 1 2.06.22l19.46 19.46 11.57-8.04a1.66 1.66 0 0 1 2.04.11l8.84 7.73a1.662 1.662 0 0 1-2.19 2.5l-7.86-6.88-11.64 8.1q-.44.3-.95.3" transform="translate(-51.26 -49)"/></g><g transform="matrix(4.20588 0 0 5.1966 432.855 330.266)"><linearGradient id="c" x1="0" x2="1" y1="0" y2="0" gradientUnits="objectBoundingBox"><stop offset="0%" stop-color="#f00b51"/><stop offset="100%" stop-color="#730062"/></linearGradient><path fill="url(#c)" d="M210.416 5.166a8.3 8.3 0 0 1 0-16.57 8.3 8.3 0 0 1 0 16.57m0-13.26a4.98 4.98 0 0 0 .01 9.96 4.98 4.98 0 0 0 0-9.96" transform="translate(-63.42 -40.98)"/></g><path fill="transparent" stroke="transparent" d="M847 0h306v304H847z"/></g></svg>